<?xml version="1.0" encoding="UTF-8"?>
<!DOCTYPE svg PUBLIC "-//W3C//DTD SVG 1.1//EN" "http://www.w3.org/Graphics/SVG/1.1/DTD/svg11.dtd">
<svg width="160mm" height="90mm" viewBox="0 0 16000 9000" version="1.1" xmlns="http://www.w3.org/2000/svg" xmlns:xlink="http://www.w3.org/1999/xlink" stroke-width="28.222" stroke-linejoin="round" xml:space="preserve">
 <path fill="rgb(255,255,255)" stroke="none" d="M 8000,8999 L 0,8999 0,0 15999,0 15999,8999 8000,8999 Z"/>
 <path fill="none" stroke="rgb(179,179,179)" stroke-linejoin="round" d="M 7764,7216 L 2253,7216 2253,2350 13275,2350 13275,7216 7764,7216 Z"/>
 <path fill="none" stroke="rgb(179,179,179)" stroke-linejoin="round" d="M 13275,7215 L 2253,7215"/>
 <path fill="none" stroke="rgb(179,179,179)" stroke-linejoin="round" d="M 13275,6728 L 2253,6728"/>
 <path fill="none" stroke="rgb(179,179,179)" stroke-linejoin="round" d="M 13275,6241 L 2253,6241"/>
 <path fill="none" stroke="rgb(179,179,179)" stroke-linejoin="round" d="M 13275,5754 L 2253,5754"/>
 <path fill="none" stroke="rgb(179,179,179)" stroke-linejoin="round" d="M 13275,5268 L 2253,5268"/>
 <path fill="none" stroke="rgb(179,179,179)" stroke-linejoin="round" d="M 13275,4781 L 2253,4781"/>
 <path fill="none" stroke="rgb(179,179,179)" stroke-linejoin="round" d="M 13275,4295 L 2253,4295"/>
 <path fill="none" stroke="rgb(179,179,179)" stroke-linejoin="round" d="M 13275,3809 L 2253,3809"/>
 <path fill="none" stroke="rgb(179,179,179)" stroke-linejoin="round" d="M 13275,3322 L 2253,3322"/>
 <path fill="none" stroke="rgb(179,179,179)" stroke-linejoin="round" d="M 13275,2835 L 2253,2835"/>
 <path fill="none" stroke="rgb(179,179,179)" stroke-linejoin="round" d="M 13275,2349 L 2253,2349"/>
 <path fill="none" stroke="rgb(179,179,179)" stroke-linejoin="round" d="M 2253,7365 L 2253,7215"/>
 <path fill="none" stroke="rgb(179,179,179)" stroke-linejoin="round" d="M 2253,7365 L 2253,7215"/>
 <path fill="none" stroke="rgb(179,179,179)" stroke-linejoin="round" d="M 2804,7365 L 2804,7215"/>
 <path fill="none" stroke="rgb(179,179,179)" stroke-linejoin="round" d="M 2804,7365 L 2804,7215"/>
 <path fill="none" stroke="rgb(179,179,179)" stroke-linejoin="round" d="M 3355,7365 L 3355,7215"/>
 <path fill="none" stroke="rgb(179,179,179)" stroke-linejoin="round" d="M 3355,7365 L 3355,7215"/>
 <path fill="none" stroke="rgb(179,179,179)" stroke-linejoin="round" d="M 3906,7365 L 3906,7215"/>
 <path fill="none" stroke="rgb(179,179,179)" stroke-linejoin="round" d="M 3906,7365 L 3906,7215"/>
 <path fill="none" stroke="rgb(179,179,179)" stroke-linejoin="round" d="M 4457,7365 L 4457,7215"/>
 <path fill="none" stroke="rgb(179,179,179)" stroke-linejoin="round" d="M 4457,7365 L 4457,7215"/>
 <path fill="none" stroke="rgb(179,179,179)" stroke-linejoin="round" d="M 5008,7365 L 5008,7215"/>
 <path fill="none" stroke="rgb(179,179,179)" stroke-linejoin="round" d="M 5008,7365 L 5008,7215"/>
 <path fill="none" stroke="rgb(179,179,179)" stroke-linejoin="round" d="M 5559,7365 L 5559,7215"/>
 <path fill="none" stroke="rgb(179,179,179)" stroke-linejoin="round" d="M 5559,7365 L 5559,7215"/>
 <path fill="none" stroke="rgb(179,179,179)" stroke-linejoin="round" d="M 6111,7365 L 6111,7215"/>
 <path fill="none" stroke="rgb(179,179,179)" stroke-linejoin="round" d="M 6111,7365 L 6111,7215"/>
 <path fill="none" stroke="rgb(179,179,179)" stroke-linejoin="round" d="M 6662,7365 L 6662,7215"/>
 <path fill="none" stroke="rgb(179,179,179)" stroke-linejoin="round" d="M 6662,7365 L 6662,7215"/>
 <path fill="none" stroke="rgb(179,179,179)" stroke-linejoin="round" d="M 7213,7365 L 7213,7215"/>
 <path fill="none" stroke="rgb(179,179,179)" stroke-linejoin="round" d="M 7213,7365 L 7213,7215"/>
 <path fill="none" stroke="rgb(179,179,179)" stroke-linejoin="round" d="M 7764,7365 L 7764,7215"/>
 <path fill="none" stroke="rgb(179,179,179)" stroke-linejoin="round" d="M 7764,7365 L 7764,7215"/>
 <path fill="none" stroke="rgb(179,179,179)" stroke-linejoin="round" d="M 8314,7365 L 8314,7215"/>
 <path fill="none" stroke="rgb(179,179,179)" stroke-linejoin="round" d="M 8314,7365 L 8314,7215"/>
 <path fill="none" stroke="rgb(179,179,179)" stroke-linejoin="round" d="M 8865,7365 L 8865,7215"/>
 <path fill="none" stroke="rgb(179,179,179)" stroke-linejoin="round" d="M 8865,7365 L 8865,7215"/>
 <path fill="none" stroke="rgb(179,179,179)" stroke-linejoin="round" d="M 9416,7365 L 9416,7215"/>
 <path fill="none" stroke="rgb(179,179,179)" stroke-linejoin="round" d="M 9416,7365 L 9416,7215"/>
 <path fill="none" stroke="rgb(179,179,179)" stroke-linejoin="round" d="M 9968,7365 L 9968,7215"/>
 <path fill="none" stroke="rgb(179,179,179)" stroke-linejoin="round" d="M 9968,7365 L 9968,7215"/>
 <path fill="none" stroke="rgb(179,179,179)" stroke-linejoin="round" d="M 10519,7365 L 10519,7215"/>
 <path fill="none" stroke="rgb(179,179,179)" stroke-linejoin="round" d="M 10519,7365 L 10519,7215"/>
 <path fill="none" stroke="rgb(179,179,179)" stroke-linejoin="round" d="M 11070,7365 L 11070,7215"/>
 <path fill="none" stroke="rgb(179,179,179)" stroke-linejoin="round" d="M 11070,7365 L 11070,7215"/>
 <path fill="none" stroke="rgb(179,179,179)" stroke-linejoin="round" d="M 11621,7365 L 11621,7215"/>
 <path fill="none" stroke="rgb(179,179,179)" stroke-linejoin="round" d="M 11621,7365 L 11621,7215"/>
 <path fill="none" stroke="rgb(179,179,179)" stroke-linejoin="round" d="M 12172,7365 L 12172,7215"/>
 <path fill="none" stroke="rgb(179,179,179)" stroke-linejoin="round" d="M 12172,7365 L 12172,7215"/>
 <path fill="none" stroke="rgb(179,179,179)" stroke-linejoin="round" d="M 12723,7365 L 12723,7215"/>
 <path fill="none" stroke="rgb(179,179,179)" stroke-linejoin="round" d="M 12723,7365 L 12723,7215"/>
 <path fill="none" stroke="rgb(179,179,179)" stroke-linejoin="round" d="M 13275,7365 L 13275,7215"/>
 <path fill="none" stroke="rgb(179,179,179)" stroke-linejoin="round" d="M 13275,7365 L 13275,7215"/>
 <path fill="none" stroke="rgb(179,179,179)" stroke-linejoin="round" d="M 2253,7215 L 13275,7215"/>
 <path fill="none" stroke="rgb(179,179,179)" stroke-linejoin="round" d="M 2103,7215 L 2253,7215"/>
 <path fill="none" stroke="rgb(179,179,179)" stroke-linejoin="round" d="M 2103,7215 L 2253,7215"/>
 <path fill="none" stroke="rgb(179,179,179)" stroke-linejoin="round" d="M 2103,6728 L 2253,6728"/>
 <path fill="none" stroke="rgb(179,179,179)" stroke-linejoin="round" d="M 2103,6728 L 2253,6728"/>
 <path fill="none" stroke="rgb(179,179,179)" stroke-linejoin="round" d="M 2103,6241 L 2253,6241"/>
 <path fill="none" stroke="rgb(179,179,179)" stroke-linejoin="round" d="M 2103,6241 L 2253,6241"/>
 <path fill="none" stroke="rgb(179,179,179)" stroke-linejoin="round" d="M 2103,5754 L 2253,5754"/>
 <path fill="none" stroke="rgb(179,179,179)" stroke-linejoin="round" d="M 2103,5754 L 2253,5754"/>
 <path fill="none" stroke="rgb(179,179,179)" stroke-linejoin="round" d="M 2103,5268 L 2253,5268"/>
 <path fill="none" stroke="rgb(179,179,179)" stroke-linejoin="round" d="M 2103,5268 L 2253,5268"/>
 <path fill="none" stroke="rgb(179,179,179)" stroke-linejoin="round" d="M 2103,4781 L 2253,4781"/>
 <path fill="none" stroke="rgb(179,179,179)" stroke-linejoin="round" d="M 2103,4781 L 2253,4781"/>
 <path fill="none" stroke="rgb(179,179,179)" stroke-linejoin="round" d="M 2103,4295 L 2253,4295"/>
 <path fill="none" stroke="rgb(179,179,179)" stroke-linejoin="round" d="M 2103,4295 L 2253,4295"/>
 <path fill="none" stroke="rgb(179,179,179)" stroke-linejoin="round" d="M 2103,3809 L 2253,3809"/>
 <path fill="none" stroke="rgb(179,179,179)" stroke-linejoin="round" d="M 2103,3809 L 2253,3809"/>
 <path fill="none" stroke="rgb(179,179,179)" stroke-linejoin="round" d="M 2103,3322 L 2253,3322"/>
 <path fill="none" stroke="rgb(179,179,179)" stroke-linejoin="round" d="M 2103,3322 L 2253,3322"/>
 <path fill="none" stroke="rgb(179,179,179)" stroke-linejoin="round" d="M 2103,2835 L 2253,2835"/>
 <path fill="none" stroke="rgb(179,179,179)" stroke-linejoin="round" d="M 2103,2835 L 2253,2835"/>
 <path fill="none" stroke="rgb(179,179,179)" stroke-linejoin="round" d="M 2103,2349 L 2253,2349"/>
 <path fill="none" stroke="rgb(179,179,179)" stroke-linejoin="round" d="M 2103,2349 L 2253,2349"/>
 <path fill="none" stroke="rgb(179,179,179)" stroke-linejoin="round" d="M 2253,7215 L 2253,2349"/>
 <path fill="none" stroke="rgb(255,64,0)" stroke-width="80" stroke-linejoin="round" d="M 2253,5616 L 2804,4733 3355,4298 3906,3796 4457,3732 5008,3621 5559,3406 6111,3360 6662,3331 7213,3235 7764,3131 8314,3160 8865,3127 9416,3064 9968,3050 10519,3022 11070,2957 11621,3080 12172,2950 12723,2967 13275,2991"/>
 <text class="TextShape"><tspan class="TextParagraph" font-family="Liberation Sans, sans-serif" font-size="353px" font-weight="400"><tspan class="TextPosition" x="2156" y="7783"><tspan fill="rgb(0,0,0)" stroke="none">1</tspan></tspan></tspan></text>
 <text class="TextShape"><tspan class="TextParagraph" font-family="Liberation Sans, sans-serif" font-size="353px" font-weight="400"><tspan class="TextPosition" x="2707" y="7783"><tspan fill="rgb(0,0,0)" stroke="none">2</tspan></tspan></tspan></text>
 <text class="TextShape"><tspan class="TextParagraph" font-family="Liberation Sans, sans-serif" font-size="353px" font-weight="400"><tspan class="TextPosition" x="3258" y="7783"><tspan fill="rgb(0,0,0)" stroke="none">3</tspan></tspan></tspan></text>
 <text class="TextShape"><tspan class="TextParagraph" font-family="Liberation Sans, sans-serif" font-size="353px" font-weight="400"><tspan class="TextPosition" x="3809" y="7783"><tspan fill="rgb(0,0,0)" stroke="none">4</tspan></tspan></tspan></text>
 <text class="TextShape"><tspan class="TextParagraph" font-family="Liberation Sans, sans-serif" font-size="353px" font-weight="400"><tspan class="TextPosition" x="4360" y="7783"><tspan fill="rgb(0,0,0)" stroke="none">5</tspan></tspan></tspan></text>
 <text class="TextShape"><tspan class="TextParagraph" font-family="Liberation Sans, sans-serif" font-size="353px" font-weight="400"><tspan class="TextPosition" x="4911" y="7783"><tspan fill="rgb(0,0,0)" stroke="none">6</tspan></tspan></tspan></text>
 <text class="TextShape"><tspan class="TextParagraph" font-family="Liberation Sans, sans-serif" font-size="353px" font-weight="400"><tspan class="TextPosition" x="5462" y="7783"><tspan fill="rgb(0,0,0)" stroke="none">7</tspan></tspan></tspan></text>
 <text class="TextShape"><tspan class="TextParagraph" font-family="Liberation Sans, sans-serif" font-size="353px" font-weight="400"><tspan class="TextPosition" x="6014" y="7783"><tspan fill="rgb(0,0,0)" stroke="none">8</tspan></tspan></tspan></text>
 <text class="TextShape"><tspan class="TextParagraph" font-family="Liberation Sans, sans-serif" font-size="353px" font-weight="400"><tspan class="TextPosition" x="6565" y="7783"><tspan fill="rgb(0,0,0)" stroke="none">9</tspan></tspan></tspan></text>
 <text class="TextShape"><tspan class="TextParagraph" font-family="Liberation Sans, sans-serif" font-size="353px" font-weight="400"><tspan class="TextPosition" x="7019" y="7783"><tspan fill="rgb(0,0,0)" stroke="none">10</tspan></tspan></tspan></text>
 <text class="TextShape"><tspan class="TextParagraph" font-family="Liberation Sans, sans-serif" font-size="353px" font-weight="400"><tspan class="TextPosition" x="7570" y="7783"><tspan fill="rgb(0,0,0)" stroke="none">11</tspan></tspan></tspan></text>
 <text class="TextShape"><tspan class="TextParagraph" font-family="Liberation Sans, sans-serif" font-size="353px" font-weight="400"><tspan class="TextPosition" x="8121" y="7783"><tspan fill="rgb(0,0,0)" stroke="none">12</tspan></tspan></tspan></text>
 <text class="TextShape"><tspan class="TextParagraph" font-family="Liberation Sans, sans-serif" font-size="353px" font-weight="400"><tspan class="TextPosition" x="8672" y="7783"><tspan fill="rgb(0,0,0)" stroke="none">13</tspan></tspan></tspan></text>
 <text class="TextShape"><tspan class="TextParagraph" font-family="Liberation Sans, sans-serif" font-size="353px" font-weight="400"><tspan class="TextPosition" x="9223" y="7783"><tspan fill="rgb(0,0,0)" stroke="none">14</tspan></tspan></tspan></text>
 <text class="TextShape"><tspan class="TextParagraph" font-family="Liberation Sans, sans-serif" font-size="353px" font-weight="400"><tspan class="TextPosition" x="9775" y="7783"><tspan fill="rgb(0,0,0)" stroke="none">15</tspan></tspan></tspan></text>
 <text class="TextShape"><tspan class="TextParagraph" font-family="Liberation Sans, sans-serif" font-size="353px" font-weight="400"><tspan class="TextPosition" x="10326" y="7783"><tspan fill="rgb(0,0,0)" stroke="none">16</tspan></tspan></tspan></text>
 <text class="TextShape"><tspan class="TextParagraph" font-family="Liberation Sans, sans-serif" font-size="353px" font-weight="400"><tspan class="TextPosition" x="10877" y="7783"><tspan fill="rgb(0,0,0)" stroke="none">17</tspan></tspan></tspan></text>
 <text class="TextShape"><tspan class="TextParagraph" font-family="Liberation Sans, sans-serif" font-size="353px" font-weight="400"><tspan class="TextPosition" x="11428" y="7783"><tspan fill="rgb(0,0,0)" stroke="none">18</tspan></tspan></tspan></text>
 <text class="TextShape"><tspan class="TextParagraph" font-family="Liberation Sans, sans-serif" font-size="353px" font-weight="400"><tspan class="TextPosition" x="11979" y="7783"><tspan fill="rgb(0,0,0)" stroke="none">19</tspan></tspan></tspan></text>
 <text class="TextShape"><tspan class="TextParagraph" font-family="Liberation Sans, sans-serif" font-size="353px" font-weight="400"><tspan class="TextPosition" x="12530" y="7783"><tspan fill="rgb(0,0,0)" stroke="none">20</tspan></tspan></tspan></text>
 <text class="TextShape"><tspan class="TextParagraph" font-family="Liberation Sans, sans-serif" font-size="353px" font-weight="400"><tspan class="TextPosition" x="13082" y="7783"><tspan fill="rgb(0,0,0)" stroke="none">21</tspan></tspan></tspan></text>
 <text class="TextShape"><tspan class="TextParagraph" font-family="Liberation Sans, sans-serif" font-size="353px" font-weight="400"><tspan class="TextPosition" x="1315" y="7340"><tspan fill="rgb(0,0,0)" stroke="none">0.88</tspan></tspan></tspan></text>
 <text class="TextShape"><tspan class="TextParagraph" font-family="Liberation Sans, sans-serif" font-size="353px" font-weight="400"><tspan class="TextPosition" x="1315" y="6853"><tspan fill="rgb(0,0,0)" stroke="none">0.89</tspan></tspan></tspan></text>
 <text class="TextShape"><tspan class="TextParagraph" font-family="Liberation Sans, sans-serif" font-size="353px" font-weight="400"><tspan class="TextPosition" x="1509" y="6366"><tspan fill="rgb(0,0,0)" stroke="none">0.9</tspan></tspan></tspan></text>
 <text class="TextShape"><tspan class="TextParagraph" font-family="Liberation Sans, sans-serif" font-size="353px" font-weight="400"><tspan class="TextPosition" x="1315" y="5879"><tspan fill="rgb(0,0,0)" stroke="none">0.91</tspan></tspan></tspan></text>
 <text class="TextShape"><tspan class="TextParagraph" font-family="Liberation Sans, sans-serif" font-size="353px" font-weight="400"><tspan class="TextPosition" x="1315" y="5393"><tspan fill="rgb(0,0,0)" stroke="none">0.92</tspan></tspan></tspan></text>
 <text class="TextShape"><tspan class="TextParagraph" font-family="Liberation Sans, sans-serif" font-size="353px" font-weight="400"><tspan class="TextPosition" x="1315" y="4906"><tspan fill="rgb(0,0,0)" stroke="none">0.93</tspan></tspan></tspan></text>
 <text class="TextShape"><tspan class="TextParagraph" font-family="Liberation Sans, sans-serif" font-size="353px" font-weight="400"><tspan class="TextPosition" x="1315" y="4419"><tspan fill="rgb(0,0,0)" stroke="none">0.94</tspan></tspan></tspan></text>
 <text class="TextShape"><tspan class="TextParagraph" font-family="Liberation Sans, sans-serif" font-size="353px" font-weight="400"><tspan class="TextPosition" x="1315" y="3933"><tspan fill="rgb(0,0,0)" stroke="none">0.95</tspan></tspan></tspan></text>
 <text class="TextShape"><tspan class="TextParagraph" font-family="Liberation Sans, sans-serif" font-size="353px" font-weight="400"><tspan class="TextPosition" x="1315" y="3446"><tspan fill="rgb(0,0,0)" stroke="none">0.96</tspan></tspan></tspan></text>
 <text class="TextShape"><tspan class="TextParagraph" font-family="Liberation Sans, sans-serif" font-size="353px" font-weight="400"><tspan class="TextPosition" x="1315" y="2959"><tspan fill="rgb(0,0,0)" stroke="none">0.97</tspan></tspan></tspan></text>
 <text class="TextShape"><tspan class="TextParagraph" font-family="Liberation Sans, sans-serif" font-size="353px" font-weight="400"><tspan class="TextPosition" x="1315" y="2473"><tspan fill="rgb(0,0,0)" stroke="none">0.98</tspan></tspan></tspan></text>
 <text class="TextShape"><tspan class="TextParagraph" font-family="Liberation Sans, sans-serif" font-size="459px" font-weight="400"><tspan class="TextPosition" x="6359" y="877"><tspan fill="rgb(0,0,0)" stroke="none">Validation Score</tspan></tspan></tspan></text>
 <text class="TextShape"><tspan class="TextParagraph" font-family="Liberation Sans, sans-serif" font-size="388px" font-weight="400"><tspan class="TextPosition" x="5213" y="1771"><tspan fill="rgb(0,0,0)" stroke="none">Rubix ML Multi Layer Perceptron</tspan></tspan></tspan></text>
 <path fill="none" stroke="rgb(255,64,0)" stroke-width="80" stroke-linejoin="round" d="M 13907,4499 L 14707,4499"/>
 <text class="TextShape"><tspan class="TextParagraph" font-family="Liberation Sans, sans-serif" font-size="353px" font-weight="400"><tspan class="TextPosition" x="14807" y="4622"><tspan fill="rgb(0,0,0)" stroke="none">score</tspan></tspan></tspan></text>
 <text class="TextShape"><tspan class="TextParagraph" font-family="Liberation Sans, sans-serif" font-size="318px" font-weight="400"><tspan class="TextPosition" x="6943" y="8414"><tspan fill="rgb(0,0,0)" stroke="none">Epoch</tspan></tspan></tspan></text>
 <text class="TextShape" transform="rotate(-90 828 5648)"><tspan class="TextParagraph" font-family="Liberation Sans, sans-serif" font-size="318px" font-weight="400"><tspan class="TextPosition" x="828" y="5648"><tspan fill="rgb(0,0,0)" stroke="none">F1 Score</tspan></tspan></tspan></text>
</svg>